<?xml version="1.0" encoding="UTF-8" standalone="no"?>
<!-- Created with Inkscape (http://www.inkscape.org/) -->

<svg
   xmlns:dc="http://purl.org/dc/elements/1.1/"
   xmlns:cc="http://creativecommons.org/ns#"
   xmlns:rdf="http://www.w3.org/1999/02/22-rdf-syntax-ns#"
   xmlns:svg="http://www.w3.org/2000/svg"
   xmlns="http://www.w3.org/2000/svg"
   xmlns:xlink="http://www.w3.org/1999/xlink"
   xmlns:sodipodi="http://sodipodi.sourceforge.net/DTD/sodipodi-0.dtd"
   xmlns:inkscape="http://www.inkscape.org/namespaces/inkscape"
   width="210mm"
   height="297mm"
   viewBox="0 0 744.09448819 1052.3622047"
   id="svg2"
   version="1.1"
   inkscape:version="0.91 r13725"
   sodipodi:docname="shield.svg">
  <defs
     id="defs4">
    <marker
       inkscape:stockid="Club"
       orient="auto"
       refY="0.0"
       refX="0.0"
       id="Club"
       style="overflow:visible"
       inkscape:isstock="true">
      <path
         id="path4479"
         d="M -1.5971367,-7.0977635 C -3.4863874,-7.0977635 -5.0235187,-5.5606321 -5.0235187,-3.6713813 C -5.0235187,-3.0147015 -4.7851656,-2.4444556 -4.4641095,-1.9232271 C -4.5028609,-1.8911157 -4.5437814,-1.8647646 -4.5806531,-1.8299921 C -5.2030765,-2.6849849 -6.1700514,-3.2751330 -7.3077730,-3.2751330 C -9.1970245,-3.2751331 -10.734155,-1.7380016 -10.734155,0.15124914 C -10.734155,2.0404999 -9.1970245,3.5776313 -7.3077730,3.5776313 C -6.3143268,3.5776313 -5.4391540,3.1355702 -4.8137404,2.4588126 C -4.9384274,2.8137041 -5.0235187,3.1803000 -5.0235187,3.5776313 C -5.0235187,5.4668819 -3.4863874,7.0040135 -1.5971367,7.0040135 C 0.29211394,7.0040135 1.8292454,5.4668819 1.8292454,3.5776313 C 1.8292454,2.7842354 1.5136868,2.0838028 1.0600576,1.5031550 C 2.4152718,1.7663868 3.7718375,2.2973711 4.7661444,3.8340272 C 4.0279463,3.0958289 3.5540908,1.7534117 3.5540908,-0.058529361 L 2.9247554,-0.10514681 L 3.5074733,-0.12845553 C 3.5074733,-1.9403966 3.9580199,-3.2828138 4.6962183,-4.0210121 C 3.7371277,-2.5387813 2.4390549,-1.9946496 1.1299838,-1.7134486 C 1.5341802,-2.2753578 1.8292454,-2.9268556 1.8292454,-3.6713813 C 1.8292454,-5.5606319 0.29211394,-7.0977635 -1.5971367,-7.0977635 z "
         style="fill-rule:evenodd;stroke:#43a5c9;stroke-width:0.74587913pt;stroke-opacity:0.33103452;fill:#80bbd5;fill-opacity:1"
         transform="scale(0.6)" />
    </marker>
    <marker
       inkscape:stockid="RazorWire"
       id="RazorWire"
       refX="0"
       refY="0"
       orient="auto"
       style="overflow:visible"
       inkscape:isstock="true">
      <path
         id="path4482"
         transform="scale(0.8,0.8)"
         style="fill:#80bbd5;fill-opacity:1;fill-rule:evenodd;stroke:#43a5c9;stroke-width:0.1pt;stroke-opacity:0.33103452"
         d="M 0.022727273,-0.74009011 L 0.022727273,0.69740989 L -7.7585227,3.0099099 L 10.678977,3.0099099 L 3.4914773,0.69740989 L 3.4914773,-0.74009011 L 10.741477,-2.8963401 L -7.7272727,-2.8963401 L 0.022727273,-0.74009011 z " />
    </marker>
    <marker
       inkscape:stockid="Scissors"
       orient="auto"
       refY="0.0"
       refX="0.0"
       id="Scissors"
       style="overflow:visible"
       inkscape:isstock="true">
      <path
         id="schere"
         d="M 9.0898857,-3.6061018 C 8.1198849,-4.7769976 6.3697607,-4.7358294 5.0623558,-4.2327734 L -3.1500488,-1.1548705 C -5.5383421,-2.4615840 -7.8983361,-2.0874077 -7.8983361,-2.7236578 C -7.8983361,-3.2209742 -7.4416699,-3.1119800 -7.5100293,-4.4068519 C -7.5756648,-5.6501286 -8.8736064,-6.5699315 -10.100428,-6.4884954 C -11.327699,-6.4958500 -12.599867,-5.5553341 -12.610769,-4.2584343 C -12.702194,-2.9520479 -11.603560,-1.7387447 -10.304005,-1.6532027 C -8.7816644,-1.4265411 -6.0857470,-2.3487593 -4.8210600,-0.082342643 C -5.7633447,1.6559151 -7.4350844,1.6607341 -8.9465707,1.5737277 C -10.201445,1.5014928 -11.708664,1.8611256 -12.307219,3.0945882 C -12.885586,4.2766744 -12.318421,5.9591904 -10.990470,6.3210002 C -9.6502788,6.8128279 -7.8098011,6.1912892 -7.4910978,4.6502760 C -7.2454393,3.4624530 -8.0864637,2.9043186 -7.7636052,2.4731223 C -7.5199917,2.1477623 -5.9728246,2.3362771 -3.2164999,1.0982979 L 5.6763468,4.2330688 C 6.8000164,4.5467672 8.1730685,4.5362646 9.1684433,3.4313614 L -0.051640930,-0.053722219 L 9.0898857,-3.6061018 z M -9.2179159,-5.5066058 C -7.9233569,-4.7838060 -8.0290767,-2.8230356 -9.3743431,-2.4433169 C -10.590861,-2.0196559 -12.145370,-3.2022863 -11.757521,-4.5207817 C -11.530373,-5.6026336 -10.104134,-6.0014137 -9.2179159,-5.5066058 z M -9.1616516,2.5107591 C -7.8108215,3.0096239 -8.0402087,5.2951947 -9.4138723,5.6023681 C -10.324932,5.9187072 -11.627422,5.4635705 -11.719569,4.3902287 C -11.897178,3.0851737 -10.363484,1.9060805 -9.1616516,2.5107591 z "
         style="fill:#80bbd5;stroke:#43a5c9;stroke-opacity:0.33103452;fill-opacity:1" />
    </marker>
    <marker
       inkscape:stockid="Tail"
       orient="auto"
       refY="0.0"
       refX="0.0"
       id="Tail"
       style="overflow:visible"
       inkscape:isstock="true">
      <g
         id="g4286"
         transform="scale(-1.2)"
         style="stroke:#43a5c9;stroke-opacity:0.33103452;fill:#80bbd5;fill-opacity:1">
        <path
           id="path4288"
           d="M -3.8048674,-3.9585227 L 0.54352094,0"
           style="fill:#80bbd5;fill-rule:evenodd;stroke:#43a5c9;stroke-width:0.8;stroke-linecap:round;stroke-opacity:0.33103452;fill-opacity:1" />
        <path
           id="path4290"
           d="M -1.2866832,-3.9585227 L 3.0617053,0"
           style="fill:#80bbd5;fill-rule:evenodd;stroke:#43a5c9;stroke-width:0.8;stroke-linecap:round;stroke-opacity:0.33103452;fill-opacity:1" />
        <path
           id="path4292"
           d="M 1.3053582,-3.9585227 L 5.6537466,0"
           style="fill:#80bbd5;fill-rule:evenodd;stroke:#43a5c9;stroke-width:0.8;stroke-linecap:round;stroke-opacity:0.33103452;fill-opacity:1" />
        <path
           id="path4294"
           d="M -3.8048674,4.1775838 L 0.54352094,0.21974226"
           style="fill:#80bbd5;fill-rule:evenodd;stroke:#43a5c9;stroke-width:0.8;stroke-linecap:round;stroke-opacity:0.33103452;fill-opacity:1" />
        <path
           id="path4296"
           d="M -1.2866832,4.1775838 L 3.0617053,0.21974226"
           style="fill:#80bbd5;fill-rule:evenodd;stroke:#43a5c9;stroke-width:0.8;stroke-linecap:round;stroke-opacity:0.33103452;fill-opacity:1" />
        <path
           id="path4298"
           d="M 1.3053582,4.1775838 L 5.6537466,0.21974226"
           style="fill:#80bbd5;fill-rule:evenodd;stroke:#43a5c9;stroke-width:0.8;stroke-linecap:round;stroke-opacity:0.33103452;fill-opacity:1" />
      </g>
    </marker>
    <marker
       inkscape:stockid="Arrow1Lstart"
       orient="auto"
       refY="0.0"
       refX="0.0"
       id="marker4532"
       style="overflow:visible"
       inkscape:isstock="true">
      <path
         id="path4534"
         d="M 0.0,0.0 L 5.0,-5.0 L -12.5,0.0 L 5.0,5.0 L 0.0,0.0 z "
         style="fill-rule:evenodd;stroke:#43a5c9;stroke-width:1pt;stroke-opacity:0.33103452;fill:#80bbd5;fill-opacity:1"
         transform="scale(0.8) translate(12.5,0)" />
    </marker>
    <marker
       inkscape:stockid="Arrow1Lstart"
       orient="auto"
       refY="0.0"
       refX="0.0"
       id="Arrow1Lstart"
       style="overflow:visible"
       inkscape:isstock="true">
      <path
         id="path4250"
         d="M 0.0,0.0 L 5.0,-5.0 L -12.5,0.0 L 5.0,5.0 L 0.0,0.0 z "
         style="fill-rule:evenodd;stroke:#43a5c9;stroke-width:1pt;stroke-opacity:0.33103452;fill:#80bbd5;fill-opacity:1"
         transform="scale(0.8) translate(12.5,0)" />
    </marker>
    <linearGradient
       inkscape:collect="always"
       id="linearGradient4236">
      <stop
         id="stop4240"
         offset="0"
         style="stop-color:#80bbd5;stop-opacity:0;" />
      <stop
         id="stop4238"
         offset="1"
         style="stop-color:#80bbd5;stop-opacity:1;" />
    </linearGradient>
    <radialGradient
       inkscape:collect="always"
       xlink:href="#linearGradient4236"
       id="radialGradient4242"
       cx="209.47015"
       cy="343.82654"
       fx="209.47015"
       fy="343.82654"
       r="31.191593"
       gradientTransform="matrix(-0.01233374,2.0635552,-1.0463604,-0.00625405,571.82019,-86.276364)"
       gradientUnits="userSpaceOnUse" />
  </defs>
  <sodipodi:namedview
     id="base"
     pagecolor="#ffffff"
     bordercolor="#666666"
     borderopacity="1.0"
     inkscape:pageopacity="0.0"
     inkscape:pageshadow="2"
     inkscape:zoom="3.4945312"
     inkscape:cx="209.74442"
     inkscape:cy="714.28244"
     inkscape:document-units="px"
     inkscape:current-layer="layer1"
     showgrid="false"
     inkscape:window-width="1317"
     inkscape:window-height="750"
     inkscape:window-x="49"
     inkscape:window-y="18"
     inkscape:window-maximized="1" />
  <metadata
     id="metadata7">
    <rdf:RDF>
      <cc:Work
         rdf:about="">
        <dc:format>image/svg+xml</dc:format>
        <dc:type
           rdf:resource="http://purl.org/dc/dcmitype/StillImage" />
        <dc:title></dc:title>
      </cc:Work>
    </rdf:RDF>
  </metadata>
  <g
     inkscape:label="Layer 1"
     inkscape:groupmode="layer"
     id="layer1">
    <path
       style="opacity:1;fill:url(#radialGradient4242);fill-opacity:1;stroke:#43a5c9;stroke-width:2;stroke-linecap:butt;stroke-linejoin:miter;stroke-miterlimit:0;stroke-dasharray:none;stroke-dashoffset:0;stroke-opacity:0.33103452"
       id="path4234"
       sodipodi:type="arc"
       sodipodi:cx="209.47015"
       sodipodi:cy="343.82654"
       sodipodi:rx="31.191593"
       sodipodi:ry="36.628658"
       sodipodi:start="0"
       sodipodi:end="6.2806546"
       sodipodi:open="true"
       d="m 240.66175,343.82654 a 31.191593,36.628658 0 0 1 -31.17186,36.62865 31.191593,36.628658 0 0 1 -31.2113,-36.5823 31.191593,36.628658 0 0 1 31.13236,-36.67494 31.191593,36.628658 0 0 1 31.2507,36.53589"
       inkscape:export-xdpi="125.81"
       inkscape:export-ydpi="125.81" />
  </g>
</svg>
