<?xml version="1.0" encoding="UTF-8" standalone="no"?>
<!-- Created with Inkscape (http://www.inkscape.org/) -->

<svg
   xmlns:dc="http://purl.org/dc/elements/1.1/"
   xmlns:cc="http://creativecommons.org/ns#"
   xmlns:rdf="http://www.w3.org/1999/02/22-rdf-syntax-ns#"
   xmlns:svg="http://www.w3.org/2000/svg"
   xmlns="http://www.w3.org/2000/svg"
   xmlns:sodipodi="http://sodipodi.sourceforge.net/DTD/sodipodi-0.dtd"
   xmlns:inkscape="http://www.inkscape.org/namespaces/inkscape"
   width="210mm"
   height="297mm"
   viewBox="0 0 744.09448819 1052.3622047"
   id="svg2"
   version="1.1"
   inkscape:version="0.91 r13725"
   sodipodi:docname="wrench.svg">
  <defs
     id="defs4" />
  <sodipodi:namedview
     id="base"
     pagecolor="#ffffff"
     bordercolor="#666666"
     borderopacity="1.0"
     inkscape:pageopacity="0.0"
     inkscape:pageshadow="2"
     inkscape:zoom="1.2355034"
     inkscape:cx="300.14558"
     inkscape:cy="711.10746"
     inkscape:document-units="px"
     inkscape:current-layer="layer1"
     showgrid="false"
     inkscape:window-width="1317"
     inkscape:window-height="750"
     inkscape:window-x="49"
     inkscape:window-y="18"
     inkscape:window-maximized="1" />
  <metadata
     id="metadata7">
    <rdf:RDF>
      <cc:Work
         rdf:about="">
        <dc:format>image/svg+xml</dc:format>
        <dc:type
           rdf:resource="http://purl.org/dc/dcmitype/StillImage" />
        <dc:title></dc:title>
      </cc:Work>
    </rdf:RDF>
  </metadata>
  <g
     inkscape:label="Layer 1"
     inkscape:groupmode="layer"
     id="layer1">
    <path
       style="fill:#767676;fill-opacity:1;fill-rule:evenodd;stroke:none;stroke-width:1px;stroke-linecap:butt;stroke-linejoin:miter;stroke-opacity:1"
       d="m 488.23953,336.91262 c -1.01893,5.59774 -4.80899,11.4504 -8.5546,15.76749 -4.06586,4.68619 -8.45064,8.61216 -14.47063,10.25439 -8.36813,2.2828 -13.99591,2.92988 -21.84563,2.25839 -6.56956,-0.56198 -13.37568,-1.60677 -19.22186,-4.62241 -5.93889,-3.06347 -9.48649,-9.48304 -15.06578,-13.14817 -1.85784,-1.22046 -6.02631,-2.87617 -6.02631,-2.87617 l -186.69038,4.41835 c 0,0 -2.629,-0.15167 -7.99815,4.04272 -2.03851,1.59249 -4.4963,2.83929 -5.95608,4.97485 -2.2682,3.31822 -3.18817,7.04861 -5.66324,10.21552 -2.97768,3.81 -7.55139,6.97957 -12.08328,8.66619 -3.3136,1.23322 -6.9663,1.3332 -10.49675,1.5248 -9.56864,0.51929 -19.44756,-0.15797 -28.87281,-1.88809 -3.43082,-0.62977 -6.96831,-1.48782 -9.90904,-3.36378 -1.12614,-0.71839 -2.42854,-1.60606 -2.76763,-2.89808 -0.26773,-1.02013 0.7799,-3.06642 0.7799,-3.06642 l 42.57066,-11.39315 c 0,0 1.88124,-1.70719 2.32997,-2.84898 2.57199,-6.54436 1.33682,-21.05247 1.33682,-21.05247 0,0 -6.99677,-12.70754 -12.57426,-17.0301 -1.02098,-0.79126 -3.59314,-1.45114 -3.59314,-1.45114 -11.62904,2.34796 -27.36793,6.74837 -38.41711,10.9225 0,0 -1.48122,-0.80474 -1.74573,-1.53248 l 4e-5,0 c -0.48485,-1.33398 -0.4079,-3.40256 0.29172,-4.63749 3.80576,-6.71727 10.75576,-12.52024 17.60452,-16.08395 8.61207,-4.48124 18.39211,-7.97278 28.09569,-7.67305 5.92513,0.18302 12.13549,2.12027 16.83371,5.73515 5.84278,4.49552 6.58084,8.23839 11.85463,13.3896 2.27289,2.22006 5.60574,6.84294 8.62763,7.82419 4.69544,1.52468 14.78009,0.94615 14.78009,0.94615 l 179.99979,-5.0231 c 0,0 5.38138,-3.53812 7.79265,-5.64961 3.71242,-3.25084 5.88848,-6.75291 9.61007,-9.99349 3.49876,-3.04654 7.33513,-6.58667 11.61918,-8.40542 6.08568,-2.5836 13.19112,-4.20306 19.81201,-4.03539 5.19812,0.13165 10.45093,1.43565 15.16968,3.59521 5.37484,2.45982 10.13177,5.25267 14.04458,9.64839 4.02468,4.5214 7.43197,10.75981 9.12555,16.54526 1.79394,6.12831 0.81643,11.66487 -0.32648,17.94379 z m -8.8169,-7.53799 -5.36036,-7.11901 1.54916,-7.91474 -7.53534,-3.46109 -3.97935,-7.97362 -8.1085,0.93733 -6.23328,-4.15207 -6.74678,4.2881 -8.05918,-1.55695 -3.99457,6.68346 -6.86245,2.7315 -0.83718,7.99072 -6.38544,5.37714 5.12488,6.69652 -1.16942,7.73619 6.60681,3.31181 2.05044,7.16814 7.79558,-1.19718 5.91983,5.04023 7.86151,-3.02911 7.95829,2.80451 5.69668,-6.91446 7.94809,-1.74992 0.60417,-10.08212 z"
       id="path4136"
       inkscape:connector-curvature="0"
       sodipodi:nodetypes="ssssssccssssssssccscsccscssssssccssssssssccccccccccccccccccccccccc" />
  </g>
</svg>
